{"title":"Baahubali (2015) Hindi Dubbed UNTOCHED CAM AC3 2.0[HDMaN ExCluSi","uid":12110353,"size":741736813,"categoryP":"video","categoryS":"hd___movies","magnet":"?xt=urn:btih:2550c5abff414921314ac6398b6aa4ee3a3b1aa7&amp;dn=Baahubali+%282015%29+Hindi+Dubbed+UNTOCHED+CAM+AC3+2.0%5BHDMaN+ExCluSi&amp;tr=udp%3A%2F%2Ftracker.openbittorrent.com%3A80&amp;tr=udp%3A%2F%2Fopen.demonii.com%3A1337&amp;tr=udp%3A%2F%2Ftracker.coppersurfer.tk%3A6969&amp;tr=udp%3A%2F%2Fexodus.desync.com%3A6969","seeders":6,"leechers":0,"uploader":"Urmit","files":8,"time":1436553529,"description":"[center][img]http://sekho.in/wp-content/uploads/2015/06/Bahubali-Movie-Cast-And-Crew-Poster-Release-Date-Songs-Box-Office-First-day-collection.jpg[/img]\n\n[size=6][color=blue][b]Baahubali (2015) Hindi Dubbed UNTOCHED CAM AC3 2.0[HDMaN ExCluSive][/b][/color][/size]\n\n[code]Format                      : Matroska\nFormat version              : Version 4 / Version 2\nFile size                   : 707 MiB\nDuration                    : 2h 29mn\nOverall bit rate mode       : Variable\nOverall bit rate            : 664 Kbps\nMovie name                  : -=HDMaN=-\nEncoded date                : UTC 2015-07-10 16:18:46\nWriting application         : mkvmerge v6.1.0 ('Old Devil') built on Mar  2 2013 14:32:37\nWriting library             : libebml v1.3.0 + libmatroska v1.4.0\n\n\n[ * Video ]\nID                          : 1\nFormat                      : MPEG Video\nFormat version              : Version 2\nFormat profile              : Main@Main\nFormat settings, BVOP       : Yes\nFormat settings, Matrix     : Default\nFormat settings, GOP        : M=3, N=13\nCodec ID                    : V_MPEG2\nCodec ID/Info               : MPEG 1 or 2 Video\nDuration                    : 2h 29mn\nBit rate mode               : Variable\nBit rate                    : 522 Kbps\nMaximum bit rate            : 9 672 Kbps\nWidth                       : 352 pixels\nHeight                      : 288 pixels\nDisplay aspect ratio        : 4:3\nFrame rate mode             : Constant\nFrame rate                  : 25.000 fps\nStandard                    : PAL\nColor space                 : YUV\nChroma subsampling          : 4:2:0\nBit depth                   : 8 bits\nScan type                   : Progressive\nCompression mode            : Lossy\nBits/(Pixel*Frame)          : 0.206\nTime code of first frame    : 00:00:00:00\nTime code source            : Group of pictures header\nGOP, Open/Closed            : Open\nStream size                 : 557 MiB (79%)\nTitle                       : -=HDMaN=-\nDefault                     : Yes\nForced                      : No\n\n\n[ * Audio ]\nID                          : 2\nFormat                      : MPEG Audio\nFormat version              : Version 1\nFormat profile              : Layer 2\nCodec ID                    : A_MPEG/L2\nCodec ID/Hint               : MP2\nDuration                    : 2h 29mn\nBit rate mode               : Constant\nBit rate                    : 128 Kbps\nChannel(s)                  : 2 channels\nSampling rate               : 48.0 KHz\nCompression mode            : Lossy\nDelay relative to video     : -600ms\nStream size                 : 136 MiB (19%)\nTitle                       : -=HDMaN=-\nDefault                     : Yes\nForced                      : No\n\nNote: &quot;JPEG&quot; less quality, don't judge by this.[/code]\n\n\n[img]http://i.imgur.com/BIwV8qS.png[/img]\n[img]http://i.imgur.com/rGDzvTu.png[/img]\n[img]http://i.imgur.com/JVmmuiv.png[/img]\n[img]http://i.imgur.com/7N7oJZO.png[/img][/center]","torrent":{"xt":"urn:btih:2550c5abff414921314ac6398b6aa4ee3a3b1aa7","amp;dn":"Baahubali+%282015%29+Hindi+Dubbed+UNTOCHED+CAM+AC3+2.0%5BHDMaN+ExCluSi","amp;tr":["udp%3A%2F%2Ftracker.openbittorrent.com%3A80","udp%3A%2F%2Fopen.demonii.com%3A1337","udp%3A%2F%2Ftracker.coppersurfer.tk%3A6969","udp%3A%2F%2Fexodus.desync.com%3A6969"],"infoHash":"2550c5abff414921314ac6398b6aa4ee3a3b1aa7","infoHashBuffer":{"type":"Buffer","data":[37,80,197,171,255,65,73,33,49,74,198,57,139,106,164,238,58,59,26,167]},"announce":[],"urlList":[]}}